<?xml version="1.0" standalone="no"?>
<!DOCTYPE svg PUBLIC "-//W3C//DTD SVG 20010904//EN"
 "http://www.w3.org/TR/2001/REC-SVG-20010904/DTD/svg10.dtd">
<svg version="1.0" xmlns="http://www.w3.org/2000/svg"
 width="1000.000000pt" height="1000.000000pt" viewBox="0 0 1000.000000 1000.000000"
 preserveAspectRatio="xMidYMid meet">
<metadata>
Created by potrace 1.14, written by Peter Selinger 2001-2017
</metadata>
<g transform="translate(0.000000,1000.000000) scale(0.100000,-0.100000)"
fill="#000000" stroke="none">
<path d="M4657 8964 c-2 -3 -28 -7 -58 -10 -30 -2 -69 -7 -87 -9 -18 -3 -54
-8 -79 -11 -65 -7 -77 -17 -98 -71 -10 -26 -23 -61 -31 -78 -7 -16 -27 -66
-44 -110 -17 -44 -37 -93 -44 -110 -7 -16 -35 -86 -62 -154 -27 -68 -53 -125
-59 -126 -65 -19 -253 -80 -265 -86 -8 -5 -60 -27 -115 -50 -55 -22 -112 -48
-127 -55 -15 -8 -33 -14 -40 -12 -16 3 -232 -101 -236 -113 -2 -5 -17 -16 -33
-25 -28 -14 -35 -12 -232 72 -111 47 -222 95 -246 106 -38 17 -97 41 -167 68
-14 6 -28 4 -40 -5 -11 -8 -51 -38 -90 -67 -217 -162 -561 -514 -701 -719
l-32 -46 70 -164 c39 -90 79 -186 91 -214 11 -27 24 -59 29 -70 80 -189 80
-187 62 -214 -22 -33 -64 -109 -63 -116 0 -5 -37 -86 -104 -224 -11 -25 -21
-47 -22 -50 0 -3 -8 -24 -18 -46 -29 -68 -117 -314 -120 -337 -5 -32 -17 -58
-27 -58 -4 0 -145 -54 -313 -121 -336 -134 -312 -117 -323 -219 -2 -25 -6 -56
-8 -70 -12 -67 -19 -225 -19 -410 0 -191 10 -415 19 -429 2 -4 6 -31 9 -61 9
-91 15 -123 23 -131 5 -5 76 -36 158 -69 83 -34 168 -69 190 -79 22 -10 95
-40 162 -66 l121 -49 13 -45 c7 -25 17 -52 22 -59 5 -7 7 -15 4 -19 -4 -3 -3
-11 2 -17 6 -7 12 -23 14 -36 9 -44 38 -122 89 -240 28 -63 52 -122 53 -130 2
-20 90 -201 131 -269 36 -60 38 -43 -20 -173 -14 -31 -26 -60 -26 -63 0 -3 -9
-25 -19 -48 -10 -23 -42 -98 -70 -167 -49 -118 -62 -148 -91 -211 -10 -22 -8
-31 14 -63 39 -58 161 -209 213 -263 148 -155 338 -346 377 -378 27 -22 56
-47 65 -55 9 -8 49 -39 88 -68 72 -53 72 -53 105 -38 18 8 98 42 178 76 80 34
168 72 195 85 84 38 209 90 220 90 6 0 105 -48 220 -106 116 -58 242 -118 280
-133 39 -15 84 -34 100 -41 26 -11 161 -58 175 -60 3 0 28 -9 55 -18 48 -16
51 -20 74 -79 13 -35 32 -81 42 -103 9 -22 49 -121 89 -220 105 -265 100 -255
129 -256 14 -1 35 -3 46 -5 27 -4 91 -12 145 -19 189 -22 551 -23 755 -1 63 7
141 17 160 21 11 2 30 4 43 4 21 1 41 33 72 116 5 11 15 36 23 55 12 29 35 85
90 220 3 8 28 69 55 135 l49 120 86 29 c67 22 87 33 91 50 4 17 26 29 103 55
54 18 135 51 181 72 45 21 86 38 90 37 4 0 43 16 87 37 44 21 83 39 87 39 3 1
10 5 15 9 4 5 37 22 72 38 71 33 62 34 176 -17 28 -12 120 -52 205 -88 161
-69 172 -74 230 -99 90 -40 83 -40 157 15 245 185 576 517 736 739 48 67 48
53 -5 183 -59 144 -183 438 -204 483 -12 27 -12 36 -2 55 7 13 16 25 19 28 17
14 189 347 189 366 0 3 7 20 15 37 32 71 84 208 100 267 3 8 13 40 23 70 l19
55 144 58 c79 32 149 60 154 62 45 19 131 49 138 47 4 -1 7 3 7 8 0 6 7 10 15
10 10 0 170 65 182 74 1 0 4 21 7 46 15 110 18 128 22 161 2 19 6 171 8 339 4
271 0 365 -19 518 -12 101 -17 137 -19 138 0 0 -50 20 -111 43 -60 24 -123 49
-140 56 -16 7 -112 45 -212 85 -110 43 -183 77 -183 85 0 9 -15 15 -42 17
l-43 3 -22 70 c-27 82 -87 241 -114 302 -10 24 -19 46 -19 51 0 17 -164 328
-202 382 -7 12 -5 28 11 63 49 110 61 138 106 247 26 63 53 129 61 145 7 17
29 68 48 115 l34 85 -51 65 c-28 36 -54 67 -57 70 -3 3 -23 28 -45 55 -119
149 -396 421 -550 540 -21 17 -52 41 -69 55 -78 65 -62 66 -256 -17 -96 -40
-199 -85 -228 -98 -29 -14 -55 -25 -59 -25 -3 0 -31 -11 -62 -24 -109 -47
-111 -47 -142 -30 -14 8 -18 13 -9 14 10 0 8 4 -7 13 -173 99 -386 200 -428
202 -22 2 -60 12 -85 22 -25 11 -93 35 -152 54 l-106 33 -23 56 c-12 30 -30
73 -39 95 -10 22 -57 137 -106 255 -48 118 -90 218 -93 222 -6 7 -163 30 -218
32 -18 1 -33 4 -33 7 0 6 -647 9 -653 3z m513 -1028 c58 -4 115 -8 126 -10 12
-2 45 -7 75 -11 57 -6 190 -31 267 -49 53 -13 101 -26 130 -35 18 -5 34 -10
37 -11 8 -1 26 -7 105 -33 531 -177 1049 -549 1380 -992 25 -33 48 -62 51 -65
4 -3 36 -50 72 -105 111 -170 200 -341 271 -520 16 -38 32 -79 36 -90 48 -118
130 -448 146 -586 3 -30 7 -64 9 -76 33 -209 24 -561 -21 -823 -22 -131 -24
-140 -46 -225 -11 -44 -21 -84 -22 -90 -7 -30 -38 -133 -46 -150 -5 -11 -27
-69 -50 -130 -24 -60 -77 -177 -119 -260 -453 -886 -1322 -1480 -2316 -1582
-99 -10 -487 -10 -575 0 -139 15 -169 20 -280 42 -165 34 -254 56 -264 66 -6
5 -18 9 -28 9 -44 0 -336 116 -483 192 -114 59 -324 188 -390 240 -177 138
-232 187 -344 298 -375 372 -650 860 -775 1370 -29 120 -35 151 -60 322 -28
185 -28 597 -1 763 3 17 7 44 10 60 4 28 18 107 29 165 13 70 71 279 104 370
149 415 371 768 682 1081 133 134 199 192 314 277 39 29 78 59 86 65 15 12 62
44 91 62 115 71 160 97 256 146 200 103 508 218 653 243 14 2 43 9 65 14 22 6
60 14 85 17 25 4 62 10 82 15 20 4 39 5 43 2 3 -3 5 -1 5 4 0 5 17 9 38 10 52
1 287 16 289 18 4 4 169 -1 283 -8z"/>
<path d="M4745 7494 c-60 -7 -150 -19 -200 -29 -49 -9 -101 -19 -115 -22 -14
-2 -50 -11 -80 -20 -30 -9 -62 -17 -70 -18 -8 -1 -22 -5 -30 -8 -8 -3 -40 -13
-70 -22 -151 -47 -412 -171 -554 -264 -71 -46 -213 -148 -226 -161 -3 -3 -32
-27 -65 -55 -124 -102 -329 -326 -384 -418 -13 -21 -28 -43 -35 -50 -49 -51
-202 -327 -256 -462 -62 -156 -121 -351 -134 -445 -3 -19 -8 -48 -11 -65 -3
-16 -8 -43 -11 -60 -13 -68 -7 -65 -115 -65 -72 0 -99 -3 -100 -12 -6 -75 -2
-238 6 -239 70 -4 768 1 773 6 4 3 7 60 7 126 l1 119 -102 0 -102 0 5 33 c27
182 103 419 190 592 32 65 127 227 145 250 5 6 32 42 60 80 29 39 64 83 78
100 39 46 190 196 242 240 52 45 214 165 222 165 3 0 24 12 48 28 76 48 82 51
158 88 180 87 361 150 510 179 16 3 93 16 125 20 174 27 445 26 635 -1 53 -8
262 -56 290 -67 8 -3 44 -15 80 -27 346 -116 709 -370 942 -660 54 -67 128
-168 128 -174 0 -2 16 -28 36 -57 71 -104 201 -398 230 -519 2 -8 10 -40 18
-70 14 -52 19 -76 32 -162 l6 -38 -100 0 -99 0 0 -125 c0 -69 3 -125 6 -126
15 -3 757 -4 766 -2 6 2 10 52 10 126 l-1 122 -102 3 c-96 3 -102 4 -106 25
-3 12 -12 63 -21 112 -67 388 -262 803 -528 1123 -186 224 -475 467 -677 571
-25 12 -56 33 -70 45 -25 22 -151 86 -200 101 -14 4 -29 11 -35 15 -17 14
-225 86 -270 94 -11 2 -49 11 -85 20 -69 17 -84 21 -170 36 -50 8 -91 13 -220
26 -97 10 -301 9 -405 -2z"/>
<path d="M4725 5793 c-280 -96 -476 -301 -547 -575 -32 -122 -32 -291 1 -418
13 -49 16 -57 57 -145 70 -152 232 -311 384 -376 26 -11 50 -28 52 -37 2 -9 4
-309 3 -667 l0 -650 -25 1 c-21 1 -105 16 -218 40 -13 2 -78 23 -144 44 -194
64 -431 186 -583 302 -381 289 -644 667 -774 1113 -19 66 -24 85 -36 153 -3
15 -8 38 -10 52 -16 78 -25 70 88 70 l102 0 -1 113 c-1 61 -2 117 -3 123 -1 7
-120 10 -393 10 l-392 -1 -1 -105 c-1 -152 -9 -140 106 -140 54 0 100 -3 102
-7 3 -5 7 -31 11 -60 3 -28 8 -57 10 -65 3 -7 8 -31 11 -53 3 -22 10 -58 16
-80 11 -39 14 -51 24 -96 8 -37 26 -92 41 -126 8 -17 14 -36 14 -42 0 -6 7
-27 16 -48 9 -21 20 -47 23 -58 17 -50 150 -306 188 -363 24 -34 43 -66 43
-71 0 -5 4 -11 9 -13 4 -1 36 -42 69 -89 121 -171 339 -391 487 -490 28 -18
56 -39 64 -47 52 -51 359 -223 491 -275 75 -30 293 -104 330 -112 14 -3 54
-12 90 -20 244 -54 479 -71 725 -52 44 3 83 6 88 6 4 1 7 387 7 859 l0 857 58
27 c121 56 215 132 299 241 41 53 112 182 117 210 1 7 4 17 8 22 3 6 11 35 17
65 6 30 14 66 17 80 2 14 5 67 4 119 -1 292 -156 557 -413 705 -47 27 -148 68
-199 80 l-28 6 -2 -372 -3 -373 -155 -1 c-85 0 -160 1 -165 3 -7 2 -10 130
-10 364 0 198 -2 364 -5 367 -8 11 -22 10 -65 -5z"/>
<path d="M6854 4826 l1 -121 75 -1 c135 -3 123 2 115 -46 -15 -101 -70 -302
-112 -408 -86 -217 -192 -399 -337 -577 -53 -65 -232 -244 -301 -301 -125
-103 -341 -230 -535 -315 l-55 -24 1 -194 c1 -107 2 -195 3 -196 2 -4 161 55
241 90 225 96 382 193 618 382 61 49 283 279 341 355 94 121 186 259 220 330
15 31 36 69 47 85 26 38 81 165 104 240 7 22 15 45 19 50 3 6 6 15 8 20 1 6
14 44 28 85 15 41 28 82 30 90 2 8 9 38 15 65 6 28 14 61 16 75 3 14 11 60 19
104 8 43 15 80 15 82 0 2 45 4 100 4 73 0 100 3 101 13 1 6 2 62 3 123 l1 110
-391 1 -391 0 1 -121z"/>
</g>
</svg>
